<svg width="748" height="199" viewBox="0 0 748 199" fill="none" xmlns="http://www.w3.org/2000/svg">
<path d="M26.5 5V179" stroke="#CABDEE" stroke-opacity="0.3"/>
<path d="M75.5 5V179" stroke="#CABDEE" stroke-opacity="0.3"/>
<path d="M125.5 5V179" stroke="#CABDEE" stroke-opacity="0.3"/>
<path d="M174.5 5V179" stroke="#CABDEE" stroke-opacity="0.3"/>
<path d="M224.5 5V179" stroke="#CABDEE" stroke-opacity="0.3"/>
<path d="M273.5 5V179" stroke="#CABDEE" stroke-opacity="0.3"/>
<path d="M323.5 5V179" stroke="#CABDEE" stroke-opacity="0.3"/>
<path d="M372.5 5V179" stroke="#CABDEE" stroke-opacity="0.3"/>
<path d="M422.5 5V179" stroke="#CABDEE" stroke-opacity="0.3"/>
<path d="M471.5 5V179" stroke="#CABDEE" stroke-opacity="0.3"/>
<path d="M520.5 5V179" stroke="#CABDEE" stroke-opacity="0.3"/>
<path d="M570.5 5V179" stroke="#CABDEE" stroke-opacity="0.3"/>
<path d="M619.5 5V179" stroke="#CABDEE" stroke-opacity="0.3"/>
<path d="M669.5 5V179" stroke="#CABDEE" stroke-opacity="0.3"/>
<path d="M718.5 5V179" stroke="#CABDEE" stroke-opacity="0.3"/>
<path d="M27 179.5H744" stroke="#CABDEE" stroke-opacity="0.3"/>
<path d="M27 121.5H744" stroke="#CABDEE" stroke-opacity="0.3"/>
<path d="M27 63.5H744" stroke="#CABDEE" stroke-opacity="0.3"/>
<path d="M27 4.5H744" stroke="#CABDEE" stroke-opacity="0.3"/>
<path d="M27 179.5H744" stroke="#CABDEE" stroke-opacity="0.3"/>
<path d="M26.5 5V179" stroke="#CABDEE" stroke-opacity="0.3"/>
<path d="M20.9453 188.891V196H20.0176V188.891H20.9453ZM23.2305 188.891V189.662H17.7373V188.891H23.2305ZM25.8525 196.098C25.4847 196.098 25.151 196.036 24.8516 195.912C24.5553 195.785 24.2998 195.608 24.085 195.38C23.8734 195.152 23.7106 194.882 23.5967 194.569C23.4827 194.257 23.4258 193.915 23.4258 193.544V193.339C23.4258 192.909 23.4893 192.527 23.6162 192.191C23.7432 191.853 23.9157 191.566 24.1338 191.332C24.3519 191.098 24.5993 190.92 24.876 190.8C25.1527 190.679 25.4391 190.619 25.7354 190.619C26.113 190.619 26.4385 190.684 26.7119 190.814C26.9886 190.945 27.2148 191.127 27.3906 191.361C27.5664 191.592 27.6966 191.866 27.7812 192.182C27.8659 192.494 27.9082 192.836 27.9082 193.207V193.612H23.9629V192.875H27.0049V192.807C26.9919 192.572 26.943 192.344 26.8584 192.123C26.777 191.902 26.6468 191.719 26.4678 191.576C26.2887 191.433 26.0446 191.361 25.7354 191.361C25.5303 191.361 25.3415 191.405 25.1689 191.493C24.9964 191.578 24.8483 191.705 24.7246 191.874C24.6009 192.043 24.5049 192.25 24.4365 192.494C24.3682 192.738 24.334 193.02 24.334 193.339V193.544C24.334 193.795 24.3682 194.031 24.4365 194.252C24.5081 194.47 24.6107 194.662 24.7441 194.828C24.8809 194.994 25.0452 195.124 25.2373 195.219C25.4326 195.313 25.654 195.36 25.9014 195.36C26.2204 195.36 26.4906 195.295 26.7119 195.165C26.9333 195.035 27.127 194.861 27.293 194.643L27.8398 195.077C27.7259 195.25 27.5811 195.414 27.4053 195.57C27.2295 195.727 27.013 195.854 26.7559 195.951C26.502 196.049 26.2008 196.098 25.8525 196.098ZM29.5732 190.717L30.7305 192.641L31.9023 190.717H32.9619L31.2334 193.324L33.0156 196H31.9707L30.75 194.018L29.5293 196H28.4795L30.2568 193.324L28.5332 190.717H29.5732ZM36.1357 190.717V191.41H33.2793V190.717H36.1357ZM34.2461 189.433H35.1494V194.691C35.1494 194.87 35.1771 195.006 35.2324 195.097C35.2878 195.188 35.3594 195.248 35.4473 195.277C35.5352 195.307 35.6296 195.321 35.7305 195.321C35.8053 195.321 35.8835 195.315 35.9648 195.302C36.0495 195.285 36.113 195.272 36.1553 195.263L36.1602 196C36.0885 196.023 35.9941 196.044 35.877 196.063C35.763 196.086 35.6247 196.098 35.4619 196.098C35.2406 196.098 35.0371 196.054 34.8516 195.966C34.666 195.878 34.5179 195.731 34.4072 195.526C34.2998 195.318 34.2461 195.038 34.2461 194.687V189.433Z" fill="black"/>
<path d="M70.3936 188.891V196H69.4659V188.891H70.3936ZM72.6787 188.891V189.662H67.1856V188.891H72.6787ZM75.3008 196.098C74.933 196.098 74.5993 196.036 74.2998 195.912C74.0036 195.785 73.7481 195.608 73.5332 195.38C73.3216 195.152 73.1589 194.882 73.045 194.569C72.931 194.257 72.8741 193.915 72.8741 193.544V193.339C72.8741 192.909 72.9375 192.527 73.0645 192.191C73.1914 191.853 73.364 191.566 73.5821 191.332C73.8002 191.098 74.0476 190.92 74.3242 190.8C74.6009 190.679 74.8874 190.619 75.1836 190.619C75.5612 190.619 75.8867 190.684 76.1602 190.814C76.4369 190.945 76.6631 191.127 76.8389 191.361C77.0147 191.592 77.1449 191.866 77.2295 192.182C77.3142 192.494 77.3565 192.836 77.3565 193.207V193.612H73.4112V192.875H76.4532V192.807C76.4401 192.572 76.3913 192.344 76.3067 192.123C76.2253 191.902 76.0951 191.719 75.916 191.576C75.737 191.433 75.4929 191.361 75.1836 191.361C74.9785 191.361 74.7897 191.405 74.6172 191.493C74.4447 191.578 74.2966 191.705 74.1729 191.874C74.0492 192.043 73.9532 192.25 73.8848 192.494C73.8164 192.738 73.7823 193.02 73.7823 193.339V193.544C73.7823 193.795 73.8164 194.031 73.8848 194.252C73.9564 194.47 74.0589 194.662 74.1924 194.828C74.3291 194.994 74.4935 195.124 74.6856 195.219C74.8809 195.313 75.1022 195.36 75.3496 195.36C75.6687 195.36 75.9388 195.295 76.1602 195.165C76.3815 195.035 76.5752 194.861 76.7412 194.643L77.2881 195.077C77.1742 195.25 77.0293 195.414 76.8535 195.57C76.6778 195.727 76.4613 195.854 76.2041 195.951C75.9502 196.049 75.6491 196.098 75.3008 196.098ZM79.0215 190.717L80.1787 192.641L81.3506 190.717H82.4102L80.6817 193.324L82.4639 196H81.419L80.1983 194.018L78.9776 196H77.9278L79.7051 193.324L77.9815 190.717H79.0215ZM85.584 190.717V191.41H82.7276V190.717H85.584ZM83.6944 189.433H84.5977V194.691C84.5977 194.87 84.6254 195.006 84.6807 195.097C84.736 195.188 84.8076 195.248 84.8955 195.277C84.9834 195.307 85.0778 195.321 85.1787 195.321C85.2536 195.321 85.3317 195.315 85.4131 195.302C85.4978 195.285 85.5612 195.272 85.6035 195.263L85.6084 196C85.5368 196.023 85.4424 196.044 85.3252 196.063C85.2113 196.086 85.0729 196.098 84.9102 196.098C84.6888 196.098 84.4854 196.054 84.2998 195.966C84.1143 195.878 83.9662 195.731 83.8555 195.526C83.7481 195.318 83.6944 195.038 83.6944 194.687V189.433Z" fill="black"/>
<path d="M119.842 188.891V196H118.914V188.891H119.842ZM122.127 188.891V189.662H116.634V188.891H122.127ZM124.749 196.098C124.381 196.098 124.048 196.036 123.748 195.912C123.452 195.785 123.196 195.608 122.982 195.38C122.77 195.152 122.607 194.882 122.493 194.569C122.379 194.257 122.322 193.915 122.322 193.544V193.339C122.322 192.909 122.386 192.527 122.513 192.191C122.64 191.853 122.812 191.566 123.03 191.332C123.248 191.098 123.496 190.92 123.773 190.8C124.049 190.679 124.336 190.619 124.632 190.619C125.01 190.619 125.335 190.684 125.608 190.814C125.885 190.945 126.111 191.127 126.287 191.361C126.463 191.592 126.593 191.866 126.678 192.182C126.762 192.494 126.805 192.836 126.805 193.207V193.612H122.859V192.875H125.901V192.807C125.888 192.572 125.84 192.344 125.755 192.123C125.674 191.902 125.543 191.719 125.364 191.576C125.185 191.433 124.941 191.361 124.632 191.361C124.427 191.361 124.238 191.405 124.065 191.493C123.893 191.578 123.745 191.705 123.621 191.874C123.497 192.043 123.401 192.25 123.333 192.494C123.265 192.738 123.231 193.02 123.231 193.339V193.544C123.231 193.795 123.265 194.031 123.333 194.252C123.405 194.47 123.507 194.662 123.641 194.828C123.777 194.994 123.942 195.124 124.134 195.219C124.329 195.313 124.551 195.36 124.798 195.36C125.117 195.36 125.387 195.295 125.608 195.165C125.83 195.035 126.023 194.861 126.19 194.643L126.736 195.077C126.622 195.25 126.478 195.414 126.302 195.57C126.126 195.727 125.91 195.854 125.652 195.951C125.398 196.049 125.097 196.098 124.749 196.098ZM128.47 190.717L129.627 192.641L130.799 190.717H131.858L130.13 193.324L131.912 196H130.867L129.647 194.018L128.426 196H127.376L129.153 193.324L127.43 190.717H128.47ZM135.032 190.717V191.41H132.176V190.717H135.032ZM133.143 189.433H134.046V194.691C134.046 194.87 134.074 195.006 134.129 195.097C134.184 195.188 134.256 195.248 134.344 195.277C134.432 195.307 134.526 195.321 134.627 195.321C134.702 195.321 134.78 195.315 134.861 195.302C134.946 195.285 135.01 195.272 135.052 195.263L135.057 196C134.985 196.023 134.891 196.044 134.773 196.063C134.66 196.086 134.521 196.098 134.358 196.098C134.137 196.098 133.934 196.054 133.748 195.966C133.563 195.878 133.414 195.731 133.304 195.526C133.196 195.318 133.143 195.038 133.143 194.687V189.433Z" fill="black"/>
<path d="M169.29 188.891V196H168.362V188.891H169.29ZM171.575 188.891V189.662H166.082V188.891H171.575ZM174.197 196.098C173.83 196.098 173.496 196.036 173.196 195.912C172.9 195.785 172.645 195.608 172.43 195.38C172.218 195.152 172.055 194.882 171.941 194.569C171.828 194.257 171.771 193.915 171.771 193.544V193.339C171.771 192.909 171.834 192.527 171.961 192.191C172.088 191.853 172.261 191.566 172.479 191.332C172.697 191.098 172.944 190.92 173.221 190.8C173.497 190.679 173.784 190.619 174.08 190.619C174.458 190.619 174.783 190.684 175.057 190.814C175.333 190.945 175.56 191.127 175.735 191.361C175.911 191.592 176.041 191.866 176.126 192.182C176.211 192.494 176.253 192.836 176.253 193.207V193.612H172.308V192.875H175.35V192.807C175.337 192.572 175.288 192.344 175.203 192.123C175.122 191.902 174.992 191.719 174.813 191.576C174.634 191.433 174.389 191.361 174.08 191.361C173.875 191.361 173.686 191.405 173.514 191.493C173.341 191.578 173.193 191.705 173.069 191.874C172.946 192.043 172.85 192.25 172.781 192.494C172.713 192.738 172.679 193.02 172.679 193.339V193.544C172.679 193.795 172.713 194.031 172.781 194.252C172.853 194.47 172.955 194.662 173.089 194.828C173.226 194.994 173.39 195.124 173.582 195.219C173.777 195.313 173.999 195.36 174.246 195.36C174.565 195.36 174.835 195.295 175.057 195.165C175.278 195.035 175.472 194.861 175.638 194.643L176.185 195.077C176.071 195.25 175.926 195.414 175.75 195.57C175.574 195.727 175.358 195.854 175.101 195.951C174.847 196.049 174.546 196.098 174.197 196.098ZM177.918 190.717L179.075 192.641L180.247 190.717H181.307L179.578 193.324L181.36 196H180.316L179.095 194.018L177.874 196H176.824L178.602 193.324L176.878 190.717H177.918ZM184.481 190.717V191.41H181.624V190.717H184.481ZM182.591 189.433H183.494V194.691C183.494 194.87 183.522 195.006 183.577 195.097C183.633 195.188 183.704 195.248 183.792 195.277C183.88 195.307 183.974 195.321 184.075 195.321C184.15 195.321 184.228 195.315 184.31 195.302C184.394 195.285 184.458 195.272 184.5 195.263L184.505 196C184.433 196.023 184.339 196.044 184.222 196.063C184.108 196.086 183.969 196.098 183.807 196.098C183.585 196.098 183.382 196.054 183.196 195.966C183.011 195.878 182.863 195.731 182.752 195.526C182.645 195.318 182.591 195.038 182.591 194.687V189.433Z" fill="black"/>
<path d="M218.738 188.891V196H217.811V188.891H218.738ZM221.024 188.891V189.662H215.53V188.891H221.024ZM223.646 196.098C223.278 196.098 222.944 196.036 222.645 195.912C222.348 195.785 222.093 195.608 221.878 195.38C221.666 195.152 221.504 194.882 221.39 194.569C221.276 194.257 221.219 193.915 221.219 193.544V193.339C221.219 192.909 221.282 192.527 221.409 192.191C221.536 191.853 221.709 191.566 221.927 191.332C222.145 191.098 222.392 190.92 222.669 190.8C222.946 190.679 223.232 190.619 223.528 190.619C223.906 190.619 224.232 190.684 224.505 190.814C224.782 190.945 225.008 191.127 225.184 191.361C225.359 191.592 225.49 191.866 225.574 192.182C225.659 192.494 225.701 192.836 225.701 193.207V193.612H221.756V192.875H224.798V192.807C224.785 192.572 224.736 192.344 224.651 192.123C224.57 191.902 224.44 191.719 224.261 191.576C224.082 191.433 223.838 191.361 223.528 191.361C223.323 191.361 223.135 191.405 222.962 191.493C222.79 191.578 222.641 191.705 222.518 191.874C222.394 192.043 222.298 192.25 222.23 192.494C222.161 192.738 222.127 193.02 222.127 193.339V193.544C222.127 193.795 222.161 194.031 222.23 194.252C222.301 194.47 222.404 194.662 222.537 194.828C222.674 194.994 222.838 195.124 223.03 195.219C223.226 195.313 223.447 195.36 223.694 195.36C224.013 195.36 224.284 195.295 224.505 195.165C224.726 195.035 224.92 194.861 225.086 194.643L225.633 195.077C225.519 195.25 225.374 195.414 225.198 195.57C225.023 195.727 224.806 195.854 224.549 195.951C224.295 196.049 223.994 196.098 223.646 196.098ZM227.366 190.717L228.524 192.641L229.695 190.717H230.755L229.026 193.324L230.809 196H229.764L228.543 194.018L227.322 196H226.273L228.05 193.324L226.326 190.717H227.366ZM233.929 190.717V191.41H231.072V190.717H233.929ZM232.039 189.433H232.943V194.691C232.943 194.87 232.97 195.006 233.026 195.097C233.081 195.188 233.152 195.248 233.24 195.277C233.328 195.307 233.423 195.321 233.524 195.321C233.598 195.321 233.677 195.315 233.758 195.302C233.843 195.285 233.906 195.272 233.948 195.263L233.953 196C233.882 196.023 233.787 196.044 233.67 196.063C233.556 196.086 233.418 196.098 233.255 196.098C233.034 196.098 232.83 196.054 232.645 195.966C232.459 195.878 232.311 195.731 232.2 195.526C232.093 195.318 232.039 195.038 232.039 194.687V189.433Z" fill="black"/>
<path d="M268.187 188.891V196H267.259V188.891H268.187ZM270.472 188.891V189.662H264.979V188.891H270.472ZM273.094 196.098C272.726 196.098 272.392 196.036 272.093 195.912C271.797 195.785 271.541 195.608 271.326 195.38C271.115 195.152 270.952 194.882 270.838 194.569C270.724 194.257 270.667 193.915 270.667 193.544V193.339C270.667 192.909 270.731 192.527 270.858 192.191C270.985 191.853 271.157 191.566 271.375 191.332C271.593 191.098 271.841 190.92 272.117 190.8C272.394 190.679 272.681 190.619 272.977 190.619C273.354 190.619 273.68 190.684 273.953 190.814C274.23 190.945 274.456 191.127 274.632 191.361C274.808 191.592 274.938 191.866 275.023 192.182C275.107 192.494 275.15 192.836 275.15 193.207V193.612H271.204V192.875H274.246V192.807C274.233 192.572 274.184 192.344 274.1 192.123C274.018 191.902 273.888 191.719 273.709 191.576C273.53 191.433 273.286 191.361 272.977 191.361C272.772 191.361 272.583 191.405 272.41 191.493C272.238 191.578 272.09 191.705 271.966 191.874C271.842 192.043 271.746 192.25 271.678 192.494C271.61 192.738 271.575 193.02 271.575 193.339V193.544C271.575 193.795 271.61 194.031 271.678 194.252C271.75 194.47 271.852 194.662 271.986 194.828C272.122 194.994 272.287 195.124 272.479 195.219C272.674 195.313 272.895 195.36 273.143 195.36C273.462 195.36 273.732 195.295 273.953 195.165C274.175 195.035 274.368 194.861 274.534 194.643L275.081 195.077C274.967 195.25 274.822 195.414 274.647 195.57C274.471 195.727 274.254 195.854 273.997 195.951C273.743 196.049 273.442 196.098 273.094 196.098ZM276.815 190.717L277.972 192.641L279.144 190.717H280.203L278.475 193.324L280.257 196H279.212L277.991 194.018L276.771 196H275.721L277.498 193.324L275.775 190.717H276.815ZM283.377 190.717V191.41H280.521V190.717H283.377ZM281.487 189.433H282.391V194.691C282.391 194.87 282.418 195.006 282.474 195.097C282.529 195.188 282.601 195.248 282.689 195.277C282.777 195.307 282.871 195.321 282.972 195.321C283.047 195.321 283.125 195.315 283.206 195.302C283.291 195.285 283.354 195.272 283.397 195.263L283.402 196C283.33 196.023 283.236 196.044 283.118 196.063C283.004 196.086 282.866 196.098 282.703 196.098C282.482 196.098 282.279 196.054 282.093 195.966C281.907 195.878 281.759 195.731 281.649 195.526C281.541 195.318 281.487 195.038 281.487 194.687V189.433Z" fill="black"/>
<path d="M317.635 188.891V196H316.707V188.891H317.635ZM319.92 188.891V189.662H314.427V188.891H319.92ZM322.542 196.098C322.174 196.098 321.841 196.036 321.541 195.912C321.245 195.785 320.989 195.608 320.775 195.38C320.563 195.152 320.4 194.882 320.286 194.569C320.172 194.257 320.115 193.915 320.115 193.544V193.339C320.115 192.909 320.179 192.527 320.306 192.191C320.433 191.853 320.605 191.566 320.823 191.332C321.042 191.098 321.289 190.92 321.566 190.8C321.842 190.679 322.129 190.619 322.425 190.619C322.803 190.619 323.128 190.684 323.402 190.814C323.678 190.945 323.905 191.127 324.08 191.361C324.256 191.592 324.386 191.866 324.471 192.182C324.556 192.494 324.598 192.836 324.598 193.207V193.612H320.653V192.875H323.695V192.807C323.682 192.572 323.633 192.344 323.548 192.123C323.467 191.902 323.336 191.719 323.157 191.576C322.978 191.433 322.734 191.361 322.425 191.361C322.22 191.361 322.031 191.405 321.859 191.493C321.686 191.578 321.538 191.705 321.414 191.874C321.291 192.043 321.195 192.25 321.126 192.494C321.058 192.738 321.024 193.02 321.024 193.339V193.544C321.024 193.795 321.058 194.031 321.126 194.252C321.198 194.47 321.3 194.662 321.434 194.828C321.571 194.994 321.735 195.124 321.927 195.219C322.122 195.313 322.344 195.36 322.591 195.36C322.91 195.36 323.18 195.295 323.402 195.165C323.623 195.035 323.817 194.861 323.983 194.643L324.53 195.077C324.416 195.25 324.271 195.414 324.095 195.57C323.919 195.727 323.703 195.854 323.446 195.951C323.192 196.049 322.891 196.098 322.542 196.098ZM326.263 190.717L327.42 192.641L328.592 190.717H329.652L327.923 193.324L329.705 196H328.66L327.44 194.018L326.219 196H325.169L326.947 193.324L325.223 190.717H326.263ZM332.825 190.717V191.41H329.969V190.717H332.825ZM330.936 189.433H331.839V194.691C331.839 194.87 331.867 195.006 331.922 195.097C331.977 195.188 332.049 195.248 332.137 195.277C332.225 195.307 332.319 195.321 332.42 195.321C332.495 195.321 332.573 195.315 332.655 195.302C332.739 195.285 332.803 195.272 332.845 195.263L332.85 196C332.778 196.023 332.684 196.044 332.567 196.063C332.453 196.086 332.314 196.098 332.152 196.098C331.93 196.098 331.727 196.054 331.541 195.966C331.356 195.878 331.208 195.731 331.097 195.526C330.989 195.318 330.936 195.038 330.936 194.687V189.433Z" fill="black"/>
<path d="M367.083 188.891V196H366.156V188.891H367.083ZM369.368 188.891V189.662H363.875V188.891H369.368ZM371.99 196.098C371.623 196.098 371.289 196.036 370.99 195.912C370.693 195.785 370.438 195.608 370.223 195.38C370.011 195.152 369.849 194.882 369.735 194.569C369.621 194.257 369.564 193.915 369.564 193.544V193.339C369.564 192.909 369.627 192.527 369.754 192.191C369.881 191.853 370.054 191.566 370.272 191.332C370.49 191.098 370.737 190.92 371.014 190.8C371.291 190.679 371.577 190.619 371.873 190.619C372.251 190.619 372.576 190.684 372.85 190.814C373.127 190.945 373.353 191.127 373.529 191.361C373.704 191.592 373.835 191.866 373.919 192.182C374.004 192.494 374.046 192.836 374.046 193.207V193.612H370.101V192.875H373.143V192.807C373.13 192.572 373.081 192.344 372.996 192.123C372.915 191.902 372.785 191.719 372.606 191.576C372.427 191.433 372.183 191.361 371.873 191.361C371.668 191.361 371.479 191.405 371.307 191.493C371.134 191.578 370.986 191.705 370.863 191.874C370.739 192.043 370.643 192.25 370.574 192.494C370.506 192.738 370.472 193.02 370.472 193.339V193.544C370.472 193.795 370.506 194.031 370.574 194.252C370.646 194.47 370.749 194.662 370.882 194.828C371.019 194.994 371.183 195.124 371.375 195.219C371.571 195.313 371.792 195.36 372.039 195.36C372.358 195.36 372.628 195.295 372.85 195.165C373.071 195.035 373.265 194.861 373.431 194.643L373.978 195.077C373.864 195.25 373.719 195.414 373.543 195.57C373.367 195.727 373.151 195.854 372.894 195.951C372.64 196.049 372.339 196.098 371.99 196.098ZM375.711 190.717L376.868 192.641L378.04 190.717H379.1L377.371 193.324L379.154 196H378.109L376.888 194.018L375.667 196H374.617L376.395 193.324L374.671 190.717H375.711ZM382.274 190.717V191.41H379.417V190.717H382.274ZM380.384 189.433H381.287V194.691C381.287 194.87 381.315 195.006 381.37 195.097C381.426 195.188 381.497 195.248 381.585 195.277C381.673 195.307 381.767 195.321 381.868 195.321C381.943 195.321 382.021 195.315 382.103 195.302C382.187 195.285 382.251 195.272 382.293 195.263L382.298 196C382.226 196.023 382.132 196.044 382.015 196.063C381.901 196.086 381.763 196.098 381.6 196.098C381.378 196.098 381.175 196.054 380.99 195.966C380.804 195.878 380.656 195.731 380.545 195.526C380.438 195.318 380.384 195.038 380.384 194.687V189.433Z" fill="black"/>
<path d="M416.531 188.891V196H415.604V188.891H416.531ZM418.817 188.891V189.662H413.323V188.891H418.817ZM421.439 196.098C421.071 196.098 420.737 196.036 420.438 195.912C420.142 195.785 419.886 195.608 419.671 195.38C419.46 195.152 419.297 194.882 419.183 194.569C419.069 194.257 419.012 193.915 419.012 193.544V193.339C419.012 192.909 419.075 192.527 419.202 192.191C419.329 191.853 419.502 191.566 419.72 191.332C419.938 191.098 420.185 190.92 420.462 190.8C420.739 190.679 421.025 190.619 421.322 190.619C421.699 190.619 422.025 190.684 422.298 190.814C422.575 190.945 422.801 191.127 422.977 191.361C423.153 191.592 423.283 191.866 423.367 192.182C423.452 192.494 423.494 192.836 423.494 193.207V193.612H419.549V192.875H422.591V192.807C422.578 192.572 422.529 192.344 422.445 192.123C422.363 191.902 422.233 191.719 422.054 191.576C421.875 191.433 421.631 191.361 421.322 191.361C421.116 191.361 420.928 191.405 420.755 191.493C420.583 191.578 420.434 191.705 420.311 191.874C420.187 192.043 420.091 192.25 420.023 192.494C419.954 192.738 419.92 193.02 419.92 193.339V193.544C419.92 193.795 419.954 194.031 420.023 194.252C420.094 194.47 420.197 194.662 420.33 194.828C420.467 194.994 420.631 195.124 420.823 195.219C421.019 195.313 421.24 195.36 421.488 195.36C421.807 195.36 422.077 195.295 422.298 195.165C422.519 195.035 422.713 194.861 422.879 194.643L423.426 195.077C423.312 195.25 423.167 195.414 422.991 195.57C422.816 195.727 422.599 195.854 422.342 195.951C422.088 196.049 421.787 196.098 421.439 196.098ZM425.159 190.717L426.317 192.641L427.489 190.717H428.548L426.82 193.324L428.602 196H427.557L426.336 194.018L425.115 196H424.066L425.843 193.324L424.119 190.717H425.159ZM431.722 190.717V191.41H428.865V190.717H431.722ZM429.832 189.433H430.736V194.691C430.736 194.87 430.763 195.006 430.819 195.097C430.874 195.188 430.946 195.248 431.033 195.277C431.121 195.307 431.216 195.321 431.317 195.321C431.392 195.321 431.47 195.315 431.551 195.302C431.636 195.285 431.699 195.272 431.741 195.263L431.746 196C431.675 196.023 431.58 196.044 431.463 196.063C431.349 196.086 431.211 196.098 431.048 196.098C430.827 196.098 430.623 196.054 430.438 195.966C430.252 195.878 430.104 195.731 429.993 195.526C429.886 195.318 429.832 195.038 429.832 194.687V189.433Z" fill="black"/>
<path d="M465.98 188.891V196H465.052V188.891H465.98ZM468.265 188.891V189.662H462.772V188.891H468.265ZM470.887 196.098C470.519 196.098 470.186 196.036 469.886 195.912C469.59 195.785 469.334 195.608 469.119 195.38C468.908 195.152 468.745 194.882 468.631 194.569C468.517 194.257 468.46 193.915 468.46 193.544V193.339C468.46 192.909 468.524 192.527 468.651 192.191C468.778 191.853 468.95 191.566 469.168 191.332C469.386 191.098 469.634 190.92 469.91 190.8C470.187 190.679 470.474 190.619 470.77 190.619C471.147 190.619 471.473 190.684 471.746 190.814C472.023 190.945 472.249 191.127 472.425 191.361C472.601 191.592 472.731 191.866 472.816 192.182C472.9 192.494 472.943 192.836 472.943 193.207V193.612H468.997V192.875H472.039V192.807C472.026 192.572 471.978 192.344 471.893 192.123C471.812 191.902 471.681 191.719 471.502 191.576C471.323 191.433 471.079 191.361 470.77 191.361C470.565 191.361 470.376 191.405 470.203 191.493C470.031 191.578 469.883 191.705 469.759 191.874C469.635 192.043 469.539 192.25 469.471 192.494C469.403 192.738 469.368 193.02 469.368 193.339V193.544C469.368 193.795 469.403 194.031 469.471 194.252C469.543 194.47 469.645 194.662 469.779 194.828C469.915 194.994 470.08 195.124 470.272 195.219C470.467 195.313 470.688 195.36 470.936 195.36C471.255 195.36 471.525 195.295 471.746 195.165C471.968 195.035 472.161 194.861 472.327 194.643L472.874 195.077C472.76 195.25 472.616 195.414 472.44 195.57C472.264 195.727 472.048 195.854 471.79 195.951C471.536 196.049 471.235 196.098 470.887 196.098ZM474.608 190.717L475.765 192.641L476.937 190.717H477.996L476.268 193.324L478.05 196H477.005L475.784 194.018L474.564 196H473.514L475.291 193.324L473.568 190.717H474.608ZM481.17 190.717V191.41H478.314V190.717H481.17ZM479.281 189.433H480.184V194.691C480.184 194.87 480.212 195.006 480.267 195.097C480.322 195.188 480.394 195.248 480.482 195.277C480.57 195.307 480.664 195.321 480.765 195.321C480.84 195.321 480.918 195.315 480.999 195.302C481.084 195.285 481.147 195.272 481.19 195.263L481.195 196C481.123 196.023 481.029 196.044 480.911 196.063C480.798 196.086 480.659 196.098 480.496 196.098C480.275 196.098 480.072 196.054 479.886 195.966C479.701 195.878 479.552 195.731 479.442 195.526C479.334 195.318 479.281 195.038 479.281 194.687V189.433Z" fill="black"/>
<path d="M515.428 188.891V196H514.5V188.891H515.428ZM517.713 188.891V189.662H512.22V188.891H517.713ZM520.335 196.098C519.967 196.098 519.634 196.036 519.334 195.912C519.038 195.785 518.783 195.608 518.568 195.38C518.356 195.152 518.193 194.882 518.079 194.569C517.966 194.257 517.909 193.915 517.909 193.544V193.339C517.909 192.909 517.972 192.527 518.099 192.191C518.226 191.853 518.398 191.566 518.617 191.332C518.835 191.098 519.082 190.92 519.359 190.8C519.635 190.679 519.922 190.619 520.218 190.619C520.596 190.619 520.921 190.684 521.195 190.814C521.471 190.945 521.698 191.127 521.873 191.361C522.049 191.592 522.179 191.866 522.264 192.182C522.349 192.494 522.391 192.836 522.391 193.207V193.612H518.446V192.875H521.488V192.807C521.475 192.572 521.426 192.344 521.341 192.123C521.26 191.902 521.13 191.719 520.951 191.576C520.772 191.433 520.527 191.361 520.218 191.361C520.013 191.361 519.824 191.405 519.652 191.493C519.479 191.578 519.331 191.705 519.207 191.874C519.084 192.043 518.988 192.25 518.919 192.494C518.851 192.738 518.817 193.02 518.817 193.339V193.544C518.817 193.795 518.851 194.031 518.919 194.252C518.991 194.47 519.093 194.662 519.227 194.828C519.364 194.994 519.528 195.124 519.72 195.219C519.915 195.313 520.137 195.36 520.384 195.36C520.703 195.36 520.973 195.295 521.195 195.165C521.416 195.035 521.61 194.861 521.776 194.643L522.323 195.077C522.209 195.25 522.064 195.414 521.888 195.57C521.712 195.727 521.496 195.854 521.239 195.951C520.985 196.049 520.684 196.098 520.335 196.098ZM524.056 190.717L525.213 192.641L526.385 190.717H527.445L525.716 193.324L527.498 196H526.453L525.233 194.018L524.012 196H522.962L524.74 193.324L523.016 190.717H524.056ZM530.619 190.717V191.41H527.762V190.717H530.619ZM528.729 189.433H529.632V194.691C529.632 194.87 529.66 195.006 529.715 195.097C529.771 195.188 529.842 195.248 529.93 195.277C530.018 195.307 530.112 195.321 530.213 195.321C530.288 195.321 530.366 195.315 530.448 195.302C530.532 195.285 530.596 195.272 530.638 195.263L530.643 196C530.571 196.023 530.477 196.044 530.36 196.063C530.246 196.086 530.107 196.098 529.945 196.098C529.723 196.098 529.52 196.054 529.334 195.966C529.149 195.878 529.001 195.731 528.89 195.526C528.783 195.318 528.729 195.038 528.729 194.687V189.433Z" fill="black"/>
<path d="M564.876 188.891V196H563.949V188.891H564.876ZM567.161 188.891V189.662H561.668V188.891H567.161ZM569.784 196.098C569.416 196.098 569.082 196.036 568.783 195.912C568.486 195.785 568.231 195.608 568.016 195.38C567.804 195.152 567.642 194.882 567.528 194.569C567.414 194.257 567.357 193.915 567.357 193.544V193.339C567.357 192.909 567.42 192.527 567.547 192.191C567.674 191.853 567.847 191.566 568.065 191.332C568.283 191.098 568.53 190.92 568.807 190.8C569.084 190.679 569.37 190.619 569.666 190.619C570.044 190.619 570.37 190.684 570.643 190.814C570.92 190.945 571.146 191.127 571.322 191.361C571.497 191.592 571.628 191.866 571.712 192.182C571.797 192.494 571.839 192.836 571.839 193.207V193.612H567.894V192.875H570.936V192.807C570.923 192.572 570.874 192.344 570.789 192.123C570.708 191.902 570.578 191.719 570.399 191.576C570.22 191.433 569.976 191.361 569.666 191.361C569.461 191.361 569.273 191.405 569.1 191.493C568.927 191.578 568.779 191.705 568.656 191.874C568.532 192.043 568.436 192.25 568.368 192.494C568.299 192.738 568.265 193.02 568.265 193.339V193.544C568.265 193.795 568.299 194.031 568.368 194.252C568.439 194.47 568.542 194.662 568.675 194.828C568.812 194.994 568.976 195.124 569.168 195.219C569.364 195.313 569.585 195.36 569.832 195.36C570.151 195.36 570.422 195.295 570.643 195.165C570.864 195.035 571.058 194.861 571.224 194.643L571.771 195.077C571.657 195.25 571.512 195.414 571.336 195.57C571.161 195.727 570.944 195.854 570.687 195.951C570.433 196.049 570.132 196.098 569.784 196.098ZM573.504 190.717L574.661 192.641L575.833 190.717H576.893L575.164 193.324L576.947 196H575.902L574.681 194.018L573.46 196H572.411L574.188 193.324L572.464 190.717H573.504ZM580.067 190.717V191.41H577.21V190.717H580.067ZM578.177 189.433H579.08V194.691C579.08 194.87 579.108 195.006 579.163 195.097C579.219 195.188 579.29 195.248 579.378 195.277C579.466 195.307 579.561 195.321 579.661 195.321C579.736 195.321 579.814 195.315 579.896 195.302C579.981 195.285 580.044 195.272 580.086 195.263L580.091 196C580.02 196.023 579.925 196.044 579.808 196.063C579.694 196.086 579.556 196.098 579.393 196.098C579.172 196.098 578.968 196.054 578.783 195.966C578.597 195.878 578.449 195.731 578.338 195.526C578.231 195.318 578.177 195.038 578.177 194.687V189.433Z" fill="black"/>
<path d="M614.325 188.891V196H613.397V188.891H614.325ZM616.61 188.891V189.662H611.117V188.891H616.61ZM619.232 196.098C618.864 196.098 618.53 196.036 618.231 195.912C617.935 195.785 617.679 195.608 617.464 195.38C617.253 195.152 617.09 194.882 616.976 194.569C616.862 194.257 616.805 193.915 616.805 193.544V193.339C616.805 192.909 616.869 192.527 616.996 192.191C617.122 191.853 617.295 191.566 617.513 191.332C617.731 191.098 617.979 190.92 618.255 190.8C618.532 190.679 618.818 190.619 619.115 190.619C619.492 190.619 619.818 190.684 620.091 190.814C620.368 190.945 620.594 191.127 620.77 191.361C620.946 191.592 621.076 191.866 621.161 192.182C621.245 192.494 621.288 192.836 621.288 193.207V193.612H617.342V192.875H620.384V192.807C620.371 192.572 620.322 192.344 620.238 192.123C620.156 191.902 620.026 191.719 619.847 191.576C619.668 191.433 619.424 191.361 619.115 191.361C618.91 191.361 618.721 191.405 618.548 191.493C618.376 191.578 618.228 191.705 618.104 191.874C617.98 192.043 617.884 192.25 617.816 192.494C617.747 192.738 617.713 193.02 617.713 193.339V193.544C617.713 193.795 617.747 194.031 617.816 194.252C617.887 194.47 617.99 194.662 618.123 194.828C618.26 194.994 618.425 195.124 618.617 195.219C618.812 195.313 619.033 195.36 619.281 195.36C619.6 195.36 619.87 195.295 620.091 195.165C620.313 195.035 620.506 194.861 620.672 194.643L621.219 195.077C621.105 195.25 620.96 195.414 620.785 195.57C620.609 195.727 620.392 195.854 620.135 195.951C619.881 196.049 619.58 196.098 619.232 196.098ZM622.953 190.717L624.11 192.641L625.282 190.717H626.341L624.613 193.324L626.395 196H625.35L624.129 194.018L622.909 196H621.859L623.636 193.324L621.913 190.717H622.953ZM629.515 190.717V191.41H626.659V190.717H629.515ZM627.625 189.433H628.529V194.691C628.529 194.87 628.556 195.006 628.612 195.097C628.667 195.188 628.739 195.248 628.827 195.277C628.914 195.307 629.009 195.321 629.11 195.321C629.185 195.321 629.263 195.315 629.344 195.302C629.429 195.285 629.492 195.272 629.535 195.263L629.539 196C629.468 196.023 629.373 196.044 629.256 196.063C629.142 196.086 629.004 196.098 628.841 196.098C628.62 196.098 628.416 196.054 628.231 195.966C628.045 195.878 627.897 195.731 627.787 195.526C627.679 195.318 627.625 195.038 627.625 194.687V189.433Z" fill="black"/>
<path d="M663.773 188.891V196H662.845V188.891H663.773ZM666.058 188.891V189.662H660.565V188.891H666.058ZM668.68 196.098C668.312 196.098 667.979 196.036 667.679 195.912C667.383 195.785 667.127 195.608 666.913 195.38C666.701 195.152 666.538 194.882 666.424 194.569C666.31 194.257 666.253 193.915 666.253 193.544V193.339C666.253 192.909 666.317 192.527 666.444 192.191C666.571 191.853 666.743 191.566 666.961 191.332C667.179 191.098 667.427 190.92 667.704 190.8C667.98 190.679 668.267 190.619 668.563 190.619C668.941 190.619 669.266 190.684 669.539 190.814C669.816 190.945 670.042 191.127 670.218 191.361C670.394 191.592 670.524 191.866 670.609 192.182C670.693 192.494 670.736 192.836 670.736 193.207V193.612H666.79V192.875H669.832V192.807C669.819 192.572 669.771 192.344 669.686 192.123C669.605 191.902 669.474 191.719 669.295 191.576C669.116 191.433 668.872 191.361 668.563 191.361C668.358 191.361 668.169 191.405 667.997 191.493C667.824 191.578 667.676 191.705 667.552 191.874C667.428 192.043 667.332 192.25 667.264 192.494C667.196 192.738 667.162 193.02 667.162 193.339V193.544C667.162 193.795 667.196 194.031 667.264 194.252C667.336 194.47 667.438 194.662 667.572 194.828C667.708 194.994 667.873 195.124 668.065 195.219C668.26 195.313 668.482 195.36 668.729 195.36C669.048 195.36 669.318 195.295 669.539 195.165C669.761 195.035 669.955 194.861 670.121 194.643L670.667 195.077C670.553 195.25 670.409 195.414 670.233 195.57C670.057 195.727 669.841 195.854 669.583 195.951C669.33 196.049 669.028 196.098 668.68 196.098ZM672.401 190.717L673.558 192.641L674.73 190.717H675.789L674.061 193.324L675.843 196H674.798L673.578 194.018L672.357 196H671.307L673.084 193.324L671.361 190.717H672.401ZM678.963 190.717V191.41H676.107V190.717H678.963ZM677.074 189.433H677.977V194.691C677.977 194.87 678.005 195.006 678.06 195.097C678.115 195.188 678.187 195.248 678.275 195.277C678.363 195.307 678.457 195.321 678.558 195.321C678.633 195.321 678.711 195.315 678.792 195.302C678.877 195.285 678.941 195.272 678.983 195.263L678.988 196C678.916 196.023 678.822 196.044 678.705 196.063C678.591 196.086 678.452 196.098 678.289 196.098C678.068 196.098 677.865 196.054 677.679 195.966C677.494 195.878 677.345 195.731 677.235 195.526C677.127 195.318 677.074 195.038 677.074 194.687V189.433Z" fill="black"/>
<path d="M713.221 188.891V196H712.293V188.891H713.221ZM715.506 188.891V189.662H710.013V188.891H715.506ZM718.128 196.098C717.761 196.098 717.427 196.036 717.127 195.912C716.831 195.785 716.576 195.608 716.361 195.38C716.149 195.152 715.986 194.882 715.873 194.569C715.759 194.257 715.702 193.915 715.702 193.544V193.339C715.702 192.909 715.765 192.527 715.892 192.191C716.019 191.853 716.192 191.566 716.41 191.332C716.628 191.098 716.875 190.92 717.152 190.8C717.429 190.679 717.715 190.619 718.011 190.619C718.389 190.619 718.714 190.684 718.988 190.814C719.264 190.945 719.491 191.127 719.667 191.361C719.842 191.592 719.972 191.866 720.057 192.182C720.142 192.494 720.184 192.836 720.184 193.207V193.612H716.239V192.875H719.281V192.807C719.268 192.572 719.219 192.344 719.134 192.123C719.053 191.902 718.923 191.719 718.744 191.576C718.565 191.433 718.32 191.361 718.011 191.361C717.806 191.361 717.617 191.405 717.445 191.493C717.272 191.578 717.124 191.705 717 191.874C716.877 192.043 716.781 192.25 716.712 192.494C716.644 192.738 716.61 193.02 716.61 193.339V193.544C716.61 193.795 716.644 194.031 716.712 194.252C716.784 194.47 716.887 194.662 717.02 194.828C717.157 194.994 717.321 195.124 717.513 195.219C717.708 195.313 717.93 195.36 718.177 195.36C718.496 195.36 718.766 195.295 718.988 195.165C719.209 195.035 719.403 194.861 719.569 194.643L720.116 195.077C720.002 195.25 719.857 195.414 719.681 195.57C719.505 195.727 719.289 195.854 719.032 195.951C718.778 196.049 718.477 196.098 718.128 196.098ZM721.849 190.717L723.006 192.641L724.178 190.717H725.238L723.509 193.324L725.292 196H724.247L723.026 194.018L721.805 196H720.755L722.533 193.324L720.809 190.717H721.849ZM728.412 190.717V191.41H725.555V190.717H728.412ZM726.522 189.433H727.425V194.691C727.425 194.87 727.453 195.006 727.508 195.097C727.564 195.188 727.635 195.248 727.723 195.277C727.811 195.307 727.905 195.321 728.006 195.321C728.081 195.321 728.159 195.315 728.241 195.302C728.325 195.285 728.389 195.272 728.431 195.263L728.436 196C728.364 196.023 728.27 196.044 728.153 196.063C728.039 196.086 727.901 196.098 727.738 196.098C727.516 196.098 727.313 196.054 727.127 195.966C726.942 195.878 726.794 195.731 726.683 195.526C726.576 195.318 726.522 195.038 726.522 194.687V189.433Z" fill="black"/>
<path d="M16.4287 178.879V179.963C16.4287 180.546 16.3766 181.037 16.2725 181.438C16.1683 181.838 16.0186 182.16 15.8232 182.404C15.6279 182.648 15.3919 182.826 15.1152 182.937C14.8418 183.044 14.5326 183.098 14.1875 183.098C13.9141 183.098 13.6618 183.063 13.4307 182.995C13.1995 182.927 12.9912 182.818 12.8057 182.668C12.6234 182.515 12.4671 182.316 12.3369 182.072C12.2067 181.828 12.1074 181.532 12.0391 181.184C11.9707 180.835 11.9365 180.428 11.9365 179.963V178.879C11.9365 178.296 11.9886 177.808 12.0928 177.414C12.2002 177.02 12.3516 176.704 12.5469 176.467C12.7422 176.226 12.9766 176.053 13.25 175.949C13.5267 175.845 13.8359 175.793 14.1777 175.793C14.4544 175.793 14.7083 175.827 14.9395 175.896C15.1738 175.961 15.3822 176.066 15.5645 176.213C15.7467 176.356 15.9014 176.548 16.0283 176.789C16.1585 177.027 16.2578 177.318 16.3262 177.663C16.3945 178.008 16.4287 178.413 16.4287 178.879ZM15.5205 180.109V178.728C15.5205 178.409 15.501 178.129 15.4619 177.888C15.4261 177.644 15.3724 177.435 15.3008 177.263C15.2292 177.09 15.138 176.95 15.0273 176.843C14.9199 176.735 14.7946 176.657 14.6514 176.608C14.5114 176.556 14.3535 176.53 14.1777 176.53C13.9629 176.53 13.7725 176.571 13.6064 176.652C13.4404 176.73 13.3005 176.856 13.1865 177.028C13.0758 177.201 12.9912 177.427 12.9326 177.707C12.874 177.987 12.8447 178.327 12.8447 178.728V180.109C12.8447 180.428 12.8626 180.71 12.8984 180.954C12.9375 181.198 12.9945 181.41 13.0693 181.589C13.1442 181.765 13.2354 181.91 13.3428 182.023C13.4502 182.137 13.5739 182.222 13.7139 182.277C13.8571 182.329 14.015 182.355 14.1875 182.355C14.4089 182.355 14.6025 182.313 14.7686 182.229C14.9346 182.144 15.0729 182.012 15.1836 181.833C15.2975 181.651 15.3822 181.418 15.4375 181.135C15.4928 180.848 15.5205 180.507 15.5205 180.109Z" fill="black"/>
<path d="M7.4834 121.616L6.76074 121.431L7.11719 117.891H10.7646V118.726H7.88379L7.66895 120.659C7.79915 120.584 7.96354 120.514 8.16211 120.449C8.36393 120.384 8.59505 120.352 8.85547 120.352C9.18424 120.352 9.47884 120.409 9.73926 120.522C9.99967 120.633 10.221 120.793 10.4033 121.001C10.5889 121.209 10.7305 121.46 10.8281 121.753C10.9258 122.046 10.9746 122.373 10.9746 122.734C10.9746 123.076 10.9274 123.39 10.833 123.677C10.7419 123.963 10.6035 124.214 10.418 124.429C10.2324 124.64 9.99805 124.805 9.71484 124.922C9.4349 125.039 9.10449 125.098 8.72363 125.098C8.43717 125.098 8.16536 125.059 7.9082 124.98C7.6543 124.899 7.42643 124.777 7.22461 124.614C7.02604 124.448 6.86328 124.243 6.73633 123.999C6.61263 123.752 6.53451 123.462 6.50195 123.13H7.36133C7.40039 123.397 7.47852 123.621 7.5957 123.804C7.71289 123.986 7.86589 124.124 8.05469 124.219C8.24674 124.31 8.46973 124.355 8.72363 124.355C8.93848 124.355 9.12891 124.318 9.29492 124.243C9.46094 124.168 9.60091 124.061 9.71484 123.921C9.82878 123.781 9.91504 123.612 9.97363 123.413C10.0355 123.215 10.0664 122.992 10.0664 122.744C10.0664 122.52 10.0355 122.311 9.97363 122.119C9.91178 121.927 9.81901 121.759 9.69531 121.616C9.57487 121.473 9.42676 121.362 9.25098 121.284C9.0752 121.203 8.87337 121.162 8.64551 121.162C8.34277 121.162 8.11328 121.203 7.95703 121.284C7.80404 121.366 7.64616 121.476 7.4834 121.616ZM16.4287 120.879V121.963C16.4287 122.546 16.3766 123.037 16.2725 123.438C16.1683 123.838 16.0186 124.16 15.8232 124.404C15.6279 124.648 15.3919 124.826 15.1152 124.937C14.8418 125.044 14.5326 125.098 14.1875 125.098C13.9141 125.098 13.6618 125.063 13.4307 124.995C13.1995 124.927 12.9912 124.818 12.8057 124.668C12.6234 124.515 12.4671 124.316 12.3369 124.072C12.2067 123.828 12.1074 123.532 12.0391 123.184C11.9707 122.835 11.9365 122.428 11.9365 121.963V120.879C11.9365 120.296 11.9886 119.808 12.0928 119.414C12.2002 119.02 12.3516 118.704 12.5469 118.467C12.7422 118.226 12.9766 118.053 13.25 117.949C13.5267 117.845 13.8359 117.793 14.1777 117.793C14.4544 117.793 14.7083 117.827 14.9395 117.896C15.1738 117.961 15.3822 118.066 15.5645 118.213C15.7467 118.356 15.9014 118.548 16.0283 118.789C16.1585 119.027 16.2578 119.318 16.3262 119.663C16.3945 120.008 16.4287 120.413 16.4287 120.879ZM15.5205 122.109V120.728C15.5205 120.409 15.501 120.129 15.4619 119.888C15.4261 119.644 15.3724 119.435 15.3008 119.263C15.2292 119.09 15.138 118.95 15.0273 118.843C14.9199 118.735 14.7946 118.657 14.6514 118.608C14.5114 118.556 14.3535 118.53 14.1777 118.53C13.9629 118.53 13.7725 118.571 13.6064 118.652C13.4404 118.73 13.3005 118.856 13.1865 119.028C13.0758 119.201 12.9912 119.427 12.9326 119.707C12.874 119.987 12.8447 120.327 12.8447 120.728V122.109C12.8447 122.428 12.8626 122.71 12.8984 122.954C12.9375 123.198 12.9945 123.41 13.0693 123.589C13.1442 123.765 13.2354 123.91 13.3428 124.023C13.4502 124.137 13.5739 124.222 13.7139 124.277C13.8571 124.329 14.015 124.355 14.1875 124.355C14.4089 124.355 14.6025 124.313 14.7686 124.229C14.9346 124.144 15.0729 124.012 15.1836 123.833C15.2975 123.651 15.3822 123.418 15.4375 123.135C15.4928 122.848 15.5205 122.507 15.5205 122.109Z" fill="black"/>
<path d="M3.68457 59.8516V67H2.78125V60.9795L0.959961 61.6436V60.8281L3.54297 59.8516H3.68457ZM10.8037 62.8789V63.9629C10.8037 64.5456 10.7516 65.0371 10.6475 65.4375C10.5433 65.8379 10.3936 66.1602 10.1982 66.4043C10.0029 66.6484 9.76693 66.8258 9.49023 66.9365C9.2168 67.0439 8.90755 67.0977 8.5625 67.0977C8.28906 67.0977 8.03678 67.0635 7.80566 66.9951C7.57454 66.9268 7.36621 66.8177 7.18066 66.668C6.99837 66.515 6.84212 66.3164 6.71191 66.0723C6.58171 65.8281 6.48242 65.5319 6.41406 65.1836C6.3457 64.8353 6.31152 64.4284 6.31152 63.9629V62.8789C6.31152 62.2962 6.36361 61.8079 6.46777 61.4141C6.5752 61.0202 6.72656 60.7044 6.92188 60.4668C7.11719 60.2259 7.35156 60.0534 7.625 59.9492C7.90169 59.8451 8.21094 59.793 8.55273 59.793C8.82943 59.793 9.08333 59.8271 9.31445 59.8955C9.54883 59.9606 9.75716 60.0664 9.93945 60.2129C10.1217 60.3561 10.2764 60.5482 10.4033 60.7891C10.5335 61.0267 10.6328 61.318 10.7012 61.6631C10.7695 62.0081 10.8037 62.4134 10.8037 62.8789ZM9.89551 64.1094V62.7275C9.89551 62.4085 9.87598 62.1286 9.83691 61.8877C9.80111 61.6436 9.7474 61.4352 9.67578 61.2627C9.60417 61.0902 9.51302 60.9502 9.40234 60.8428C9.29492 60.7354 9.1696 60.6572 9.02637 60.6084C8.88639 60.5563 8.72852 60.5303 8.55273 60.5303C8.33789 60.5303 8.14746 60.571 7.98145 60.6523C7.81543 60.7305 7.67546 60.8558 7.56152 61.0283C7.45085 61.2008 7.36621 61.4271 7.30762 61.707C7.24902 61.987 7.21973 62.3271 7.21973 62.7275V64.1094C7.21973 64.4284 7.23763 64.71 7.27344 64.9541C7.3125 65.1982 7.36947 65.4098 7.44434 65.5889C7.51921 65.7646 7.61035 65.9095 7.71777 66.0234C7.8252 66.1374 7.94889 66.222 8.08887 66.2773C8.2321 66.3294 8.38997 66.3555 8.5625 66.3555C8.78385 66.3555 8.97754 66.3132 9.14355 66.2285C9.30957 66.1439 9.44792 66.012 9.55859 65.833C9.67253 65.6507 9.75716 65.418 9.8125 65.1348C9.86784 64.8483 9.89551 64.5065 9.89551 64.1094ZM16.4287 62.8789V63.9629C16.4287 64.5456 16.3766 65.0371 16.2725 65.4375C16.1683 65.8379 16.0186 66.1602 15.8232 66.4043C15.6279 66.6484 15.3919 66.8258 15.1152 66.9365C14.8418 67.0439 14.5326 67.0977 14.1875 67.0977C13.9141 67.0977 13.6618 67.0635 13.4307 66.9951C13.1995 66.9268 12.9912 66.8177 12.8057 66.668C12.6234 66.515 12.4671 66.3164 12.3369 66.0723C12.2067 65.8281 12.1074 65.5319 12.0391 65.1836C11.9707 64.8353 11.9365 64.4284 11.9365 63.9629V62.8789C11.9365 62.2962 11.9886 61.8079 12.0928 61.4141C12.2002 61.0202 12.3516 60.7044 12.5469 60.4668C12.7422 60.2259 12.9766 60.0534 13.25 59.9492C13.5267 59.8451 13.8359 59.793 14.1777 59.793C14.4544 59.793 14.7083 59.8271 14.9395 59.8955C15.1738 59.9606 15.3822 60.0664 15.5645 60.2129C15.7467 60.3561 15.9014 60.5482 16.0283 60.7891C16.1585 61.0267 16.2578 61.318 16.3262 61.6631C16.3945 62.0081 16.4287 62.4134 16.4287 62.8789ZM15.5205 64.1094V62.7275C15.5205 62.4085 15.501 62.1286 15.4619 61.8877C15.4261 61.6436 15.3724 61.4352 15.3008 61.2627C15.2292 61.0902 15.138 60.9502 15.0273 60.8428C14.9199 60.7354 14.7946 60.6572 14.6514 60.6084C14.5114 60.5563 14.3535 60.5303 14.1777 60.5303C13.9629 60.5303 13.7725 60.571 13.6064 60.6523C13.4404 60.7305 13.3005 60.8558 13.1865 61.0283C13.0758 61.2008 12.9912 61.4271 12.9326 61.707C12.874 61.987 12.8447 62.3271 12.8447 62.7275V64.1094C12.8447 64.4284 12.8626 64.71 12.8984 64.9541C12.9375 65.1982 12.9945 65.4098 13.0693 65.5889C13.1442 65.7646 13.2354 65.9095 13.3428 66.0234C13.4502 66.1374 13.5739 66.222 13.7139 66.2773C13.8571 66.3294 14.015 66.3555 14.1875 66.3555C14.4089 66.3555 14.6025 66.3132 14.7686 66.2285C14.9346 66.1439 15.0729 66.012 15.1836 65.833C15.2975 65.6507 15.3822 65.418 15.4375 65.1348C15.4928 64.8483 15.5205 64.5065 15.5205 64.1094Z" fill="black"/>
<path d="M3.68457 1.85156V9H2.78125V2.97949L0.959961 3.64355V2.82812L3.54297 1.85156H3.68457ZM7.4834 5.61621L6.76074 5.43066L7.11719 1.89062H10.7646V2.72559H7.88379L7.66895 4.65918C7.79915 4.58431 7.96354 4.51432 8.16211 4.44922C8.36393 4.38411 8.59505 4.35156 8.85547 4.35156C9.18424 4.35156 9.47884 4.40853 9.73926 4.52246C9.99967 4.63314 10.221 4.79264 10.4033 5.00098C10.5889 5.20931 10.7305 5.45996 10.8281 5.75293C10.9258 6.0459 10.9746 6.37305 10.9746 6.73438C10.9746 7.07617 10.9274 7.3903 10.833 7.67676C10.7419 7.96322 10.6035 8.21387 10.418 8.42871C10.2324 8.6403 9.99805 8.80469 9.71484 8.92188C9.4349 9.03906 9.10449 9.09766 8.72363 9.09766C8.43717 9.09766 8.16536 9.05859 7.9082 8.98047C7.6543 8.89909 7.42643 8.77702 7.22461 8.61426C7.02604 8.44824 6.86328 8.24316 6.73633 7.99902C6.61263 7.75163 6.53451 7.46191 6.50195 7.12988H7.36133C7.40039 7.39681 7.47852 7.62142 7.5957 7.80371C7.71289 7.986 7.86589 8.12435 8.05469 8.21875C8.24674 8.3099 8.46973 8.35547 8.72363 8.35547C8.93848 8.35547 9.12891 8.31803 9.29492 8.24316C9.46094 8.16829 9.60091 8.06087 9.71484 7.9209C9.82878 7.78092 9.91504 7.61165 9.97363 7.41309C10.0355 7.21452 10.0664 6.99154 10.0664 6.74414C10.0664 6.51953 10.0355 6.3112 9.97363 6.11914C9.91178 5.92708 9.81901 5.75944 9.69531 5.61621C9.57487 5.47298 9.42676 5.3623 9.25098 5.28418C9.0752 5.2028 8.87337 5.16211 8.64551 5.16211C8.34277 5.16211 8.11328 5.2028 7.95703 5.28418C7.80404 5.36556 7.64616 5.47624 7.4834 5.61621ZM16.4287 4.87891V5.96289C16.4287 6.54557 16.3766 7.03711 16.2725 7.4375C16.1683 7.83789 16.0186 8.16016 15.8232 8.4043C15.6279 8.64844 15.3919 8.82585 15.1152 8.93652C14.8418 9.04395 14.5326 9.09766 14.1875 9.09766C13.9141 9.09766 13.6618 9.06348 13.4307 8.99512C13.1995 8.92676 12.9912 8.81771 12.8057 8.66797C12.6234 8.51497 12.4671 8.31641 12.3369 8.07227C12.2067 7.82812 12.1074 7.5319 12.0391 7.18359C11.9707 6.83529 11.9365 6.42839 11.9365 5.96289V4.87891C11.9365 4.29622 11.9886 3.80794 12.0928 3.41406C12.2002 3.02018 12.3516 2.70443 12.5469 2.4668C12.7422 2.22591 12.9766 2.05339 13.25 1.94922C13.5267 1.84505 13.8359 1.79297 14.1777 1.79297C14.4544 1.79297 14.7083 1.82715 14.9395 1.89551C15.1738 1.96061 15.3822 2.06641 15.5645 2.21289C15.7467 2.35612 15.9014 2.54818 16.0283 2.78906C16.1585 3.02669 16.2578 3.31803 16.3262 3.66309C16.3945 4.00814 16.4287 4.41341 16.4287 4.87891ZM15.5205 6.10938V4.72754C15.5205 4.40853 15.501 4.12858 15.4619 3.8877C15.4261 3.64355 15.3724 3.43522 15.3008 3.2627C15.2292 3.09017 15.138 2.9502 15.0273 2.84277C14.9199 2.73535 14.7946 2.65723 14.6514 2.6084C14.5114 2.55632 14.3535 2.53027 14.1777 2.53027C13.9629 2.53027 13.7725 2.57096 13.6064 2.65234C13.4404 2.73047 13.3005 2.85579 13.1865 3.02832C13.0758 3.20085 12.9912 3.42708 12.9326 3.70703C12.874 3.98698 12.8447 4.32715 12.8447 4.72754V6.10938C12.8447 6.42839 12.8626 6.70996 12.8984 6.9541C12.9375 7.19824 12.9945 7.40983 13.0693 7.58887C13.1442 7.76465 13.2354 7.90951 13.3428 8.02344C13.4502 8.13737 13.5739 8.22201 13.7139 8.27734C13.8571 8.32943 14.015 8.35547 14.1875 8.35547C14.4089 8.35547 14.6025 8.31315 14.7686 8.22852C14.9346 8.14388 15.0729 8.01204 15.1836 7.83301C15.2975 7.65072 15.3822 7.41797 15.4375 7.13477C15.4928 6.84831 15.5205 6.50651 15.5205 6.10938Z" fill="black"/>
<path d="M27 116.36C27 116.36 41.8345 73.44 51.7241 73.44C61.6138 73.44 66.5586 114.04 76.4483 114.04C86.3379 114.04 91.2828 85.04 101.172 85.04C111.062 85.04 116.007 131.44 125.897 131.44C135.786 131.44 140.731 75.76 150.621 75.76C160.51 75.76 165.455 101.048 175.345 121C185.234 140.952 190.179 175.52 200.069 175.52C209.959 175.52 214.903 110.56 224.793 110.56C234.683 110.56 239.628 163.92 249.517 163.92C259.407 163.92 264.352 65.32 274.241 65.32C284.131 65.32 289.076 141.88 298.966 145.36C308.855 148.84 313.8 146.752 323.69 148.84C333.579 150.928 338.524 155.8 348.414 155.8C358.303 155.8 363.248 155.8 373.138 146.52C383.028 137.24 387.972 103.6 397.862 103.6C407.752 103.6 412.697 124.48 422.586 124.48C432.476 124.48 437.421 92 447.31 92C457.2 92 462.145 158.12 472.034 158.12C481.924 158.12 486.869 78.08 496.759 78.08C506.648 78.08 511.593 139.56 521.483 139.56C531.372 139.56 536.317 127.496 546.207 114.04C556.097 100.584 561.041 72.28 570.931 72.28C580.821 72.28 585.765 78.312 595.655 97.8C605.545 117.288 610.49 169.72 620.379 169.72C630.269 169.72 635.214 159.28 645.103 159.28C654.993 159.28 659.938 163.92 669.828 163.92C679.717 163.92 684.662 133.992 694.552 121C704.441 108.008 709.386 98.96 719.276 98.96C729.166 98.96 744 110.56 744 110.56" stroke="#602BF8" stroke-width="2"/>
<path d="M27 120C25.9393 120 24.922 119.579 24.1719 118.829C23.4218 118.079 23.0003 117.062 23 116.001C22.9997 114.94 23.4208 113.923 24.1705 113.173C24.9203 112.422 25.9373 112.001 26.998 112C28.0587 111.999 29.0762 112.42 29.8267 113.17C30.5772 113.919 30.9992 114.936 31 115.997C31.0008 117.058 30.5803 118.075 29.8309 118.826C29.0815 119.577 28.0647 119.999 27.004 120H27Z" fill="#602BF8"/>
<path d="M51 77C49.9393 77 48.922 76.5787 48.1719 75.8288C47.4218 75.0789 47.0003 74.0617 47 73.001C46.9997 71.9403 47.4208 70.9229 48.1705 70.1726C48.9203 69.4223 49.9373 69.0005 50.998 69C52.0587 68.9995 53.0762 69.4203 53.8267 70.1698C54.5771 70.9194 54.9992 71.9363 55 72.997C55.0008 74.0577 54.5803 75.0753 53.8309 75.826C53.0815 76.5766 52.0647 76.9989 51.004 77H51Z" fill="#602BF8"/>
<path d="M76 118C74.9393 118 73.922 117.579 73.1719 116.829C72.4218 116.079 72.0003 115.062 72 114.001C71.9997 112.94 72.4208 111.923 73.1705 111.173C73.9203 110.422 74.9373 110.001 75.998 110C77.0587 109.999 78.0762 110.42 78.8267 111.17C79.5772 111.919 79.9992 112.936 80 113.997C80.0008 115.058 79.5803 116.075 78.8309 116.826C78.0815 117.577 77.0647 117.999 76.004 118H76Z" fill="#602BF8"/>
<path d="M101 89C99.9393 89 98.922 88.5787 98.1719 87.8288C97.4218 87.0789 97.0003 86.0617 97 85.001C96.9997 83.9403 97.4208 82.9229 98.1705 82.1726C98.9203 81.4223 99.9373 81.0005 100.998 81C102.059 80.9995 103.076 81.4203 103.827 82.1698C104.577 82.9194 104.999 83.9363 105 84.997C105.001 86.0577 104.58 87.0753 103.831 87.826C103.082 88.5766 102.065 88.9989 101.004 89H101Z" fill="#602BF8"/>
<path d="M125 135C123.939 135 122.922 134.579 122.172 133.829C121.422 133.079 121 132.062 121 131.001C121 129.94 121.421 128.923 122.171 128.173C122.92 127.422 123.937 127.001 124.998 127C126.059 126.999 127.076 127.42 127.827 128.17C128.577 128.919 128.999 129.936 129 130.997C129.001 132.058 128.58 133.075 127.831 133.826C127.082 134.577 126.065 134.999 125.004 135H125Z" fill="#602BF8"/>
<path d="M150 80C148.939 80 147.922 79.5787 147.172 78.8288C146.422 78.0789 146 77.0617 146 76.001C146 74.9403 146.421 73.9229 147.171 73.1726C147.92 72.4223 148.937 72.0005 149.998 72C151.059 71.9995 152.076 72.4203 152.827 73.1698C153.577 73.9194 153.999 74.9363 154 75.997C154.001 77.0577 153.58 78.0753 152.831 78.826C152.082 79.5766 151.065 79.9989 150.004 80H150Z" fill="#602BF8"/>
<path d="M175 125C173.939 125 172.922 124.579 172.172 123.829C171.422 123.079 171 122.062 171 121.001C171 119.94 171.421 118.923 172.171 118.173C172.92 117.422 173.937 117.001 174.998 117C176.059 116.999 177.076 117.42 177.827 118.17C178.577 118.919 178.999 119.936 179 120.997C179.001 122.058 178.58 123.075 177.831 123.826C177.082 124.577 176.065 124.999 175.004 125H175Z" fill="#602BF8"/>
<path d="M200 180C198.939 180 197.922 179.579 197.172 178.829C196.422 178.079 196 177.062 196 176.001C196 174.94 196.421 173.923 197.171 173.173C197.92 172.422 198.937 172.001 199.998 172C201.059 171.999 202.076 172.42 202.827 173.17C203.577 173.919 203.999 174.936 204 175.997C204.001 177.058 203.58 178.075 202.831 178.826C202.082 179.577 201.065 179.999 200.004 180H200Z" fill="#602BF8"/>
<path d="M224 115C222.939 115 221.922 114.579 221.172 113.829C220.422 113.079 220 112.062 220 111.001C220 109.94 220.421 108.923 221.171 108.173C221.92 107.422 222.937 107.001 223.998 107C225.059 106.999 226.076 107.42 226.827 108.17C227.577 108.919 227.999 109.936 228 110.997C228.001 112.058 227.58 113.075 226.831 113.826C226.082 114.577 225.065 114.999 224.004 115H224Z" fill="#602BF8"/>
<path d="M249 168C247.939 168 246.922 167.579 246.172 166.829C245.422 166.079 245 165.062 245 164.001C245 162.94 245.421 161.923 246.171 161.173C246.92 160.422 247.937 160.001 248.998 160C250.059 159.999 251.076 160.42 251.827 161.17C252.577 161.919 252.999 162.936 253 163.997C253.001 165.058 252.58 166.075 251.831 166.826C251.082 167.577 250.065 167.999 249.004 168H249Z" fill="#602BF8"/>
<path d="M274 69C272.939 69 271.922 68.5787 271.172 67.8288C270.422 67.0789 270 66.0617 270 65.001C270 63.9403 270.421 62.9229 271.171 62.1726C271.92 61.4223 272.937 61.0005 273.998 61C275.059 60.9995 276.076 61.4203 276.827 62.1698C277.577 62.9194 277.999 63.9363 278 64.997C278.001 66.0577 277.58 67.0753 276.831 67.826C276.082 68.5766 275.065 68.9989 274.004 69L274 69Z" fill="#602BF8"/>
<path d="M298 149C296.939 149 295.922 148.579 295.172 147.829C294.422 147.079 294 146.062 294 145.001C294 143.94 294.421 142.923 295.171 142.173C295.92 141.422 296.937 141.001 297.998 141C299.059 140.999 300.076 141.42 300.827 142.17C301.577 142.919 301.999 143.936 302 144.997C302.001 146.058 301.58 147.075 300.831 147.826C300.082 148.577 299.065 148.999 298.004 149H298Z" fill="#602BF8"/>
<path d="M323 153C321.939 153 320.922 152.579 320.172 151.829C319.422 151.079 319 150.062 319 149.001C319 147.94 319.421 146.923 320.171 146.173C320.92 145.422 321.937 145.001 322.998 145C324.059 144.999 325.076 145.42 325.827 146.17C326.577 146.919 326.999 147.936 327 148.997C327.001 150.058 326.58 151.075 325.831 151.826C325.082 152.577 324.065 152.999 323.004 153H323Z" fill="#602BF8"/>
<path d="M348 160C346.939 160 345.922 159.579 345.172 158.829C344.422 158.079 344 157.062 344 156.001C344 154.94 344.421 153.923 345.171 153.173C345.92 152.422 346.937 152.001 347.998 152C349.059 151.999 350.076 152.42 350.827 153.17C351.577 153.919 351.999 154.936 352 155.997C352.001 157.058 351.58 158.075 350.831 158.826C350.082 159.577 349.065 159.999 348.004 160H348Z" fill="#602BF8"/>
<path d="M373 151C371.939 151 370.922 150.579 370.172 149.829C369.422 149.079 369 148.062 369 147.001C369 145.94 369.421 144.923 370.171 144.173C370.92 143.422 371.937 143.001 372.998 143C374.059 142.999 375.076 143.42 375.827 144.17C376.577 144.919 376.999 145.936 377 146.997C377.001 148.058 376.58 149.075 375.831 149.826C375.082 150.577 374.065 150.999 373.004 151H373Z" fill="#602BF8"/>
<path d="M397 108C395.939 108 394.922 107.579 394.172 106.829C393.422 106.079 393 105.062 393 104.001C393 102.94 393.421 101.923 394.171 101.173C394.92 100.422 395.937 100.001 396.998 100C398.059 99.9995 399.076 100.42 399.827 101.17C400.577 101.919 400.999 102.936 401 103.997C401.001 105.058 400.58 106.075 399.831 106.826C399.082 107.577 398.065 107.999 397.004 108H397Z" fill="#602BF8"/>
<path d="M422 128C420.939 128 419.922 127.579 419.172 126.829C418.422 126.079 418 125.062 418 124.001C418 122.94 418.421 121.923 419.171 121.173C419.92 120.422 420.937 120.001 421.998 120C423.059 119.999 424.076 120.42 424.827 121.17C425.577 121.919 425.999 122.936 426 123.997C426.001 125.058 425.58 126.075 424.831 126.826C424.082 127.577 423.065 127.999 422.004 128H422Z" fill="#602BF8"/>
<path d="M447 96C445.939 96 444.922 95.5787 444.172 94.8288C443.422 94.0789 443 93.0617 443 92.001C443 90.9403 443.421 89.9229 444.171 89.1726C444.92 88.4223 445.937 88.0005 446.998 88C448.059 87.9995 449.076 88.4203 449.827 89.1698C450.577 89.9194 450.999 90.9363 451 91.997C451.001 93.0577 450.58 94.0753 449.831 94.826C449.082 95.5766 448.065 95.9989 447.004 96H447Z" fill="#602BF8"/>
<path d="M472 162C470.939 162 469.922 161.579 469.172 160.829C468.422 160.079 468 159.062 468 158.001C468 156.94 468.421 155.923 469.171 155.173C469.92 154.422 470.937 154.001 471.998 154C473.059 153.999 474.076 154.42 474.827 155.17C475.577 155.919 475.999 156.936 476 157.997C476.001 159.058 475.58 160.075 474.831 160.826C474.082 161.577 473.065 161.999 472.004 162H472Z" fill="#602BF8"/>
<path d="M496 82C494.939 82 493.922 81.5787 493.172 80.8288C492.422 80.0789 492 79.0617 492 78.001C492 76.9403 492.421 75.9229 493.171 75.1726C493.92 74.4223 494.937 74.0005 495.998 74C497.059 73.9995 498.076 74.4203 498.827 75.1698C499.577 75.9194 499.999 76.9363 500 77.997C500.001 79.0577 499.58 80.0753 498.831 80.826C498.082 81.5766 497.065 81.9989 496.004 82H496Z" fill="#602BF8"/>
<path d="M521 144C519.939 144 518.922 143.579 518.172 142.829C517.422 142.079 517 141.062 517 140.001C517 138.94 517.421 137.923 518.171 137.173C518.92 136.422 519.937 136.001 520.998 136C522.059 135.999 523.076 136.42 523.827 137.17C524.577 137.919 524.999 138.936 525 139.997C525.001 141.058 524.58 142.075 523.831 142.826C523.082 143.577 522.065 143.999 521.004 144H521Z" fill="#602BF8"/>
<path d="M546 118C544.939 118 543.922 117.579 543.172 116.829C542.422 116.079 542 115.062 542 114.001C542 112.94 542.421 111.923 543.171 111.173C543.92 110.422 544.937 110.001 545.998 110C547.059 109.999 548.076 110.42 548.827 111.17C549.577 111.919 549.999 112.936 550 113.997C550.001 115.058 549.58 116.075 548.831 116.826C548.082 117.577 547.065 117.999 546.004 118H546Z" fill="#602BF8"/>
<path d="M570 76C568.939 76 567.922 75.5787 567.172 74.8288C566.422 74.0789 566 73.0617 566 72.001C566 70.9403 566.421 69.9229 567.171 69.1726C567.92 68.4223 568.937 68.0005 569.998 68C571.059 67.9995 572.076 68.4203 572.827 69.1698C573.577 69.9194 573.999 70.9363 574 71.997C574.001 73.0577 573.58 74.0753 572.831 74.826C572.082 75.5766 571.065 75.9989 570.004 76H570Z" fill="#602BF8"/>
<path d="M595 102C593.939 102 592.922 101.579 592.172 100.829C591.422 100.079 591 99.0617 591 98.001C591 96.9403 591.421 95.9229 592.171 95.1726C592.92 94.4223 593.937 94.0005 594.998 94C596.059 93.9995 597.076 94.4203 597.827 95.1698C598.577 95.9194 598.999 96.9363 599 97.997C599.001 99.0577 598.58 100.075 597.831 100.826C597.082 101.577 596.065 101.999 595.004 102H595Z" fill="#602BF8"/>
<path d="M620 174C618.939 174 617.922 173.579 617.172 172.829C616.422 172.079 616 171.062 616 170.001C616 168.94 616.421 167.923 617.171 167.173C617.92 166.422 618.937 166.001 619.998 166C621.059 165.999 622.076 166.42 622.827 167.17C623.577 167.919 623.999 168.936 624 169.997C624.001 171.058 623.58 172.075 622.831 172.826C622.082 173.577 621.065 173.999 620.004 174H620Z" fill="#602BF8"/>
<path d="M645 163C643.939 163 642.922 162.579 642.172 161.829C641.422 161.079 641 160.062 641 159.001C641 157.94 641.421 156.923 642.171 156.173C642.92 155.422 643.937 155.001 644.998 155C646.059 154.999 647.076 155.42 647.827 156.17C648.577 156.919 648.999 157.936 649 158.997C649.001 160.058 648.58 161.075 647.831 161.826C647.082 162.577 646.065 162.999 645.004 163H645Z" fill="#602BF8"/>
<path d="M669 168C667.939 168 666.922 167.579 666.172 166.829C665.422 166.079 665 165.062 665 164.001C665 162.94 665.421 161.923 666.171 161.173C666.92 160.422 667.937 160.001 668.998 160C670.059 159.999 671.076 160.42 671.827 161.17C672.577 161.919 672.999 162.936 673 163.997C673.001 165.058 672.58 166.075 671.831 166.826C671.082 167.577 670.065 167.999 669.004 168H669Z" fill="#602BF8"/>
<path d="M694 125C692.939 125 691.922 124.579 691.172 123.829C690.422 123.079 690 122.062 690 121.001C690 119.94 690.421 118.923 691.171 118.173C691.92 117.422 692.937 117.001 693.998 117C695.059 116.999 696.076 117.42 696.827 118.17C697.577 118.919 697.999 119.936 698 120.997C698.001 122.058 697.58 123.075 696.831 123.826C696.082 124.577 695.065 124.999 694.004 125H694Z" fill="#602BF8"/>
<path d="M719 103C717.939 103 716.922 102.579 716.172 101.829C715.422 101.079 715 100.062 715 99.001C715 97.9403 715.421 96.9229 716.171 96.1726C716.92 95.4223 717.937 95.0005 718.998 95C720.059 94.9995 721.076 95.4203 721.827 96.1698C722.577 96.9194 722.999 97.9363 723 98.997C723.001 100.058 722.58 101.075 721.831 101.826C721.082 102.577 720.065 102.999 719.004 103H719Z" fill="#602BF8"/>
<path d="M744 115C742.939 115 741.922 114.579 741.172 113.829C740.422 113.079 740 112.062 740 111.001C740 109.94 740.421 108.923 741.171 108.173C741.92 107.422 742.937 107.001 743.998 107C745.059 106.999 746.076 107.42 746.827 108.17C747.577 108.919 747.999 109.936 748 110.997C748.001 112.058 747.58 113.075 746.831 113.826C746.082 114.577 745.065 114.999 744.004 115H744Z" fill="#602BF8"/>
</svg>
