<svg width="130" height="116" viewBox="0 0 130 116" fill="none" xmlns="http://www.w3.org/2000/svg">
<mask id="mask0_6_28" style="mask-type:alpha" maskUnits="userSpaceOnUse" x="0" y="0" width="130" height="116">
<path d="M80.4421 18.381V0C71.3444 0 50.3641 0.891199 39.2241 4.45599C25.2991 8.91199 21.4001 15.039 5.80417 48.4589C-9.79181 81.8789 9.70316 76.3089 21.4001 100.817C33.0971 125.325 45.9081 111.957 98.823 110.286C141.155 108.949 130.201 97.1035 119.432 91.3479L104.393 76.3089L80.4421 18.381Z" fill="#D9D9D9"/>
</mask>
<g mask="url(#mask0_6_28)">
<path d="M123.116 52.3579C123.116 76.2337 103.761 95.5889 79.8851 95.5889C56.0093 95.5889 36.6541 76.2337 36.6541 52.3579C36.6541 28.4821 56.0093 9.12698 79.8851 9.12698C103.761 9.12698 123.116 28.4821 123.116 52.3579Z" stroke="#602BF8" stroke-width="6"/>
</g>
</svg>
