<svg width="100" height="13" viewBox="0 0 100 13" fill="none" xmlns="http://www.w3.org/2000/svg">
<path d="M10.9105 5.95915C10.9105 2.91415 9.10446 0.310153 5.68146 0.310153C2.25846 0.310153 0.011458 2.80915 0.011458 6.23215C0.011458 10.1592 2.38446 12.0702 5.45046 12.0702C8.07546 12.0702 10.1755 10.7472 10.7425 8.14315H7.84446C7.65546 9.34015 6.75246 10.0332 5.51346 10.0332C4.16946 10.0332 3.11946 9.29815 2.93046 6.94615H10.8685C10.9105 6.56815 10.9105 6.23215 10.9105 5.95915ZM5.55546 2.34715C6.94146 2.34715 7.73946 3.29215 7.92846 5.05615H3.01446C3.26646 3.20815 4.21146 2.34715 5.55546 2.34715ZM18.4229 6.12715L22.2869 0.604153H18.9479L16.7429 4.32115L14.5169 0.604153H11.1359L14.9369 6.10615L10.9889 11.7762H14.3069L16.6589 7.91215L18.9479 11.7762H22.3289L18.4229 6.12715ZM28.0535 0.310153C24.9875 0.310153 22.4675 2.45215 22.4675 6.27415C22.4675 10.1382 24.7565 12.0702 27.8015 12.0702C30.5945 12.0702 32.6525 10.6632 33.1355 7.91215H30.2375C29.9435 9.31915 29.1035 10.0332 27.9695 10.0332C26.5205 10.0332 25.4705 8.85715 25.4705 6.08515C25.4705 3.54415 26.5205 2.34715 27.9905 2.34715C29.1875 2.34715 30.0275 3.01915 30.3005 4.63615H33.1565C32.9465 2.15815 31.0775 0.310153 28.0535 0.310153ZM45.306 0.604153H42.408V6.29515C42.408 8.81515 41.4 10.0122 39.951 10.0122C38.607 10.0122 37.935 9.27715 37.788 8.12215C37.725 7.55515 37.704 6.94615 37.704 6.58915V0.604153H34.806V7.19815C34.806 8.10115 34.827 8.66815 34.911 9.23515C35.163 10.7682 36.549 12.0702 38.859 12.0702C39.93 12.0702 40.728 11.8602 41.547 11.3142L42.408 9.88615V11.7762H45.306V0.604153ZM51.9664 0.310153C49.2994 0.310153 47.5354 1.61215 47.5354 3.75415C47.5354 5.68615 48.9634 6.58915 51.0424 7.11415C52.9744 7.59715 53.7094 8.08015 53.7094 8.94115C53.7094 9.76015 52.9954 10.1592 52.0714 10.1592C51.0634 10.1592 50.2234 9.59215 49.9924 8.37415H47.0944C47.4094 10.8942 49.3204 12.0702 52.0294 12.0702C54.5914 12.0702 56.6284 10.9782 56.6284 8.73115C56.6284 6.67315 55.2844 5.74915 52.9954 5.16115C51.1474 4.69915 50.4544 4.25815 50.4544 3.41815C50.4544 2.72515 50.9164 2.22115 51.7774 2.22115C52.7434 2.22115 53.3104 2.80915 53.4994 3.83815H56.3974C56.1454 1.80115 54.6334 0.310153 51.9664 0.310153ZM68.5579 5.95915C68.5579 2.91415 66.7519 0.310153 63.3289 0.310153C59.9059 0.310153 57.6589 2.80915 57.6589 6.23215C57.6589 10.1592 60.0319 12.0702 63.0979 12.0702C65.7229 12.0702 67.8229 10.7472 68.3899 8.14315H65.4919C65.3029 9.34015 64.3999 10.0332 63.1609 10.0332C61.8169 10.0332 60.7669 9.29815 60.5779 6.94615H68.5159C68.5579 6.56815 68.5579 6.23215 68.5579 5.95915ZM63.2029 2.34715C64.5889 2.34715 65.3869 3.29215 65.5759 5.05615H60.6619C60.9139 3.20815 61.8589 2.34715 63.2029 2.34715ZM87.1455 3.08215C86.8935 1.54915 85.6755 0.310153 83.5545 0.310153C82.5465 0.310153 81.7905 0.520153 81.1605 0.961153L80.0685 2.43115C79.6275 1.21315 78.4725 0.310153 76.6455 0.310153C75.6375 0.310153 74.9025 0.520153 74.2725 0.961153L73.4535 2.30515V0.604153H70.5555V11.7762H73.4535V6.04315C73.4535 3.46015 74.1675 2.34715 75.4695 2.34715C76.5825 2.34715 77.2335 2.97715 77.3805 4.13215C77.4435 4.69915 77.4645 5.30815 77.4645 5.95915V11.7762H80.3415V6.04315C80.3415 3.46015 81.0765 2.34715 82.3785 2.34715C83.4915 2.34715 84.1215 2.97715 84.2685 4.13215C84.3315 4.69915 84.3525 5.30815 84.3525 5.95915V11.7762H87.2505V5.11915C87.2505 4.21615 87.2295 3.64915 87.1455 3.08215ZM99.9349 5.95915C99.9349 2.91415 98.1289 0.310153 94.7059 0.310153C91.2829 0.310153 89.0359 2.80915 89.0359 6.23215C89.0359 10.1592 91.4089 12.0702 94.4749 12.0702C97.0999 12.0702 99.1999 10.7472 99.7669 8.14315H96.8689C96.6799 9.34015 95.7769 10.0332 94.5379 10.0332C93.1939 10.0332 92.1439 9.29815 91.9549 6.94615H99.8929C99.9349 6.56815 99.9349 6.23215 99.9349 5.95915ZM94.5799 2.34715C95.9659 2.34715 96.7639 3.29215 96.9529 5.05615H92.0389C92.2909 3.20815 93.2359 2.34715 94.5799 2.34715Z" fill="black"/>
</svg>
